# xmcd CD database file
#
# Track frame offsets:
#	150
#	21917
#	42320
#	64835
#	83385
#	101922
#	122482
#
# Disc length: 1833 seconds
#
# Revision: 0
# Processed by: cddbd v1.5.2PL0 Copyright (c) Steve Scherf et al.
# Submitted via: CDex 1.50
#
DISCID=52072707
DTITLE=Eddie Costa - Eddie Costa Quintet
DYEAR=1957
DGENRE=Jazz
TTITLE0=Get Out Of The Road
TTITLE1=In Your Own Sweet Way
TTITLE2=Big Ben
TTITLE3=Nature Boy
TTITLE4=Blues Plus Eight
TTITLE5=I Didn't Know What Time It Was
TTITLE6=Stretch In "F"
EXTD=YEAR: 1957
EXTT0=
EXTT1=
EXTT2=
EXTT3=
EXTT4=
EXTT5=
EXTT6=
PLAYORDER=
